<svg width="578" height="578" viewBox="0 0 578 578" fill="none" xmlns="http://www.w3.org/2000/svg">
<rect width="578" height="578" fill="#FEFEFE"/>
<path d="M407.933 256.095C407.933 264.406 399.809 271.143 389.787 271.143L182.438 271.143C152.373 271.143 128 250.931 128 225.998L128 209.145C128 184.212 152.373 164 182.438 164L389.787 164C399.809 164 407.933 170.737 407.933 179.048V256.095Z" fill="#00BFA5"/>
<path d="M171.067 321.905C171.067 313.594 179.191 306.857 189.213 306.857H396.562C426.627 306.857 451 327.069 451 352.002V368.856C451 393.788 426.627 414 396.562 414H189.213C179.191 414 171.067 407.263 171.067 398.952V321.905Z" fill="#00BFA5"/>
</svg>
