<svg width="796" height="192" viewBox="0 0 796 192" fill="none" xmlns="http://www.w3.org/2000/svg">
<path d="M179.4 58.9406C179.4 64.2596 174.193 68.5714 167.771 68.5714L34.8876 68.5714C15.6197 68.5714 2.82311e-06 55.6359 1.13866e-06 39.679L0 28.8925C-1.68445e-06 12.9356 15.6197 1.10157e-05 34.8876 9.62071e-06L167.771 0C174.193 -4.64998e-07 179.4 4.31186 179.4 9.63082V58.9406Z" fill="#00BFA5"/>
<path d="M27.6001 101.059C27.6001 95.7404 32.8067 91.4286 39.2293 91.4286H172.112C191.38 91.4286 207 104.364 207 120.321V131.108C207 147.064 191.38 160 172.112 160H39.2293C32.8067 160 27.6001 155.688 27.6001 150.369V101.059Z" fill="#00BFA5"/>
<path d="M738.173 144.45C725.268 144.45 714.16 141.837 704.849 136.609C695.592 131.328 688.459 123.868 683.45 114.23C678.44 104.538 675.936 93.0759 675.936 79.8444C675.936 66.9396 678.44 55.6138 683.45 45.8671C688.459 36.1204 695.511 28.5245 704.604 23.0795C713.752 17.6344 724.478 14.9119 736.784 14.9119C745.061 14.9119 752.766 16.2459 759.899 18.914C767.086 21.5276 773.348 25.4753 778.684 30.757C784.075 36.0388 788.267 42.6818 791.262 50.686C794.257 58.6358 795.754 67.9469 795.754 78.6193V88.1754H689.82V66.6128H763.002C763.002 61.6034 761.913 57.1656 759.735 53.2996C757.557 49.4336 754.535 46.4116 750.669 44.2336C746.858 42.0011 742.42 40.8849 737.356 40.8849C732.074 40.8849 727.392 42.11 723.308 44.5603C719.278 46.9561 716.12 50.196 713.833 54.2798C711.546 58.3091 710.376 62.8013 710.321 67.7563V88.257C710.321 94.4644 711.465 99.8278 713.752 104.347C716.093 108.867 719.387 112.351 723.634 114.802C727.882 117.252 732.918 118.477 738.745 118.477C742.611 118.477 746.15 117.933 749.362 116.844C752.575 115.755 755.325 114.121 757.612 111.943C759.899 109.765 761.641 107.097 762.839 103.939L795.019 106.062C793.386 113.794 790.037 120.546 784.973 126.318C779.964 132.035 773.484 136.5 765.534 139.713C757.639 142.871 748.518 144.45 738.173 144.45Z" fill="#00BFA5"/>
<path d="M591.972 191.659C580.701 191.659 571.036 190.107 562.977 187.003C554.973 183.954 548.602 179.789 543.865 174.507C539.128 169.225 536.051 163.29 534.636 156.702L566.816 152.373C567.796 154.878 569.348 157.219 571.472 159.397C573.595 161.575 576.399 163.317 579.884 164.624C583.424 165.985 587.725 166.666 592.789 166.666C600.358 166.666 606.592 164.815 611.493 161.112C616.448 157.464 618.925 151.338 618.925 142.735V119.784H617.455C615.931 123.269 613.644 126.563 610.594 129.667C607.545 132.771 603.625 135.302 598.833 137.263C594.041 139.223 588.324 140.203 581.681 140.203C572.261 140.203 563.685 138.025 555.953 133.669C548.276 129.258 542.15 122.534 537.576 113.495C533.057 104.402 530.797 92.9126 530.797 79.0276C530.797 64.816 533.111 52.9457 537.739 43.4168C542.368 33.888 548.521 26.7549 556.198 22.0177C563.93 17.2805 572.397 14.9119 581.599 14.9119C588.624 14.9119 594.504 16.1098 599.241 18.5056C603.979 20.847 607.79 23.7873 610.676 27.3266C613.616 30.8115 615.876 34.2419 617.455 37.6178H618.762V16.5454H653.311V143.225C653.311 153.897 650.697 162.827 645.47 170.015C640.243 177.202 633.001 182.593 623.744 186.187C614.542 189.835 603.951 191.659 591.972 191.659ZM592.707 114.067C598.316 114.067 603.053 112.678 606.919 109.901C610.839 107.07 613.834 103.04 615.903 97.8131C618.027 92.5314 619.089 86.2151 619.089 78.8643C619.089 71.5134 618.054 65.1427 615.985 59.7521C613.916 54.307 610.921 50.0871 607.001 47.0923C603.08 44.0975 598.316 42.6001 592.707 42.6001C586.99 42.6001 582.171 44.1519 578.251 47.2556C574.33 50.3049 571.363 54.552 569.348 59.9971C567.333 65.4422 566.326 71.7312 566.326 78.8643C566.326 86.1062 567.333 92.3681 569.348 97.6498C571.417 102.877 574.385 106.934 578.251 109.82C582.171 112.651 586.99 114.067 592.707 114.067Z" fill="#00BFA5"/>
<path d="M437.809 144.369C429.805 144.369 422.672 142.98 416.41 140.203C410.148 137.372 405.193 133.206 401.545 127.707C397.951 122.153 396.154 115.237 396.154 106.961C396.154 99.9912 397.434 94.1377 399.993 89.4005C402.552 84.6633 406.037 80.8517 410.448 77.9658C414.858 75.08 419.868 72.9019 425.476 71.4318C431.139 69.9616 437.074 68.927 443.281 68.3281C450.578 67.5657 456.459 66.8579 460.923 66.2045C465.388 65.4966 468.628 64.462 470.643 63.1008C472.658 61.7395 473.665 59.7248 473.665 57.0568V56.5667C473.665 51.3939 472.031 47.3917 468.764 44.5603C465.552 41.7289 460.978 40.3131 455.043 40.3131C448.781 40.3131 443.799 41.7016 440.096 44.4786C436.393 47.2012 433.943 50.6316 432.745 54.7698L400.565 52.1562C402.198 44.5331 405.411 37.9445 410.203 32.3906C414.994 26.7821 421.174 22.4805 428.743 19.4857C436.366 16.4365 445.187 14.9119 455.206 14.9119C462.176 14.9119 468.846 15.7286 475.217 17.3621C481.642 18.9957 487.332 21.5276 492.287 24.958C497.297 28.3884 501.244 32.7989 504.13 38.1896C507.016 43.5257 508.459 49.9237 508.459 57.3834V142H475.462V124.603H474.482C472.467 128.523 469.772 131.981 466.396 134.976C463.02 137.916 458.963 140.23 454.226 141.918C449.489 143.552 444.017 144.369 437.809 144.369ZM447.774 120.356C452.892 120.356 457.411 119.348 461.332 117.334C465.252 115.265 468.329 112.488 470.561 109.003C472.794 105.518 473.91 101.57 473.91 97.1597V83.8465C472.821 84.5544 471.324 85.2078 469.418 85.8068C467.566 86.3513 465.47 86.8685 463.129 87.3586C460.787 87.7942 458.446 88.2026 456.105 88.5837C453.763 88.9104 451.64 89.2099 449.734 89.4822C445.65 90.0811 442.084 91.034 439.034 92.3408C435.985 93.6477 433.616 95.4173 431.928 97.6498C430.24 99.8278 429.396 102.55 429.396 105.817C429.396 110.555 431.112 114.176 434.542 116.68C438.027 119.131 442.437 120.356 447.774 120.356Z" fill="#00BFA5"/>
<path d="M377.266 52.3195L345.412 54.2798C344.868 51.5572 343.697 49.1069 341.9 46.9289C340.104 44.6964 337.735 42.9268 334.795 41.62C331.909 40.2587 328.451 39.5781 324.422 39.5781C319.031 39.5781 314.484 40.7215 310.782 43.0084C307.079 45.2409 305.228 48.2357 305.228 51.9928C305.228 54.9876 306.426 57.5196 308.822 59.5887C311.217 61.6578 315.328 63.3186 321.155 64.5709L343.861 69.1448C356.058 71.6495 365.151 75.6789 371.14 81.2329C377.13 86.7869 380.125 94.0833 380.125 103.122C380.125 111.344 377.702 118.559 372.856 124.766C368.064 130.974 361.475 135.82 353.09 139.305C344.759 142.735 335.148 144.45 324.258 144.45C307.651 144.45 294.419 140.993 284.564 134.077C274.763 127.108 269.018 117.633 267.33 105.654L301.552 103.857C302.587 108.921 305.092 112.787 309.067 115.455C313.041 118.069 318.133 119.376 324.34 119.376C330.439 119.376 335.339 118.205 339.042 115.864C342.799 113.468 344.705 110.391 344.759 106.634C344.705 103.476 343.371 100.89 340.757 98.8749C338.143 96.8058 334.114 95.2267 328.669 94.1377L306.943 89.8089C294.692 87.3586 285.571 83.1114 279.581 77.0674C273.646 71.0234 270.679 63.3186 270.679 53.9531C270.679 45.8943 272.857 38.9519 277.213 33.1256C281.623 27.2994 287.804 22.8072 295.753 19.6491C303.758 16.4909 313.123 14.9119 323.85 14.9119C339.695 14.9119 352.164 18.2606 361.258 24.958C370.405 31.6555 375.742 40.776 377.266 52.3195Z" fill="#00BFA5"/>
</svg>
